<mxfile host="app.diagrams.net" agent="Mozilla/5.0 (X11; Linux x86_64) AppleWebKit/537.36 (KHTML, like Gecko) Chrome/139.0.0.0 Safari/537.36" version="28.2.3">
  <diagram name="Page-1" id="vNt7aLNjw1NcP-aogwvX">
    <mxGraphModel dx="1170" dy="704" grid="1" gridSize="10" guides="1" tooltips="1" connect="1" arrows="1" fold="1" page="1" pageScale="1" pageWidth="850" pageHeight="1100" math="0" shadow="0">
      <root>
        <mxCell id="0" />
        <mxCell id="1" parent="0" />
        <mxCell id="FxgzXEkrF_b3o0yHyvXR-138" value="" style="rounded=1;whiteSpace=wrap;html=1;dashed=1;strokeColor=none;sketch=1;curveFitting=1;jiggle=2;" parent="1" vertex="1">
          <mxGeometry x="750" y="1000" width="690" height="210" as="geometry" />
        </mxCell>
        <mxCell id="FxgzXEkrF_b3o0yHyvXR-128" value="Is solved" style="rounded=1;whiteSpace=wrap;html=1;sketch=1;hachureGap=4;jiggle=2;curveFitting=1;fontFamily=Architects Daughter;fontSource=https%3A%2F%2Ffonts.googleapis.com%2Fcss%3Ffamily%3DArchitects%2BDaughter;fillColor=#f5f5f5;fontColor=#333333;strokeColor=#666666;verticalAlign=top;fontStyle=1;fontSize=20;" parent="1" vertex="1">
          <mxGeometry x="900" y="1010" width="320" height="190" as="geometry" />
        </mxCell>
        <mxCell id="FxgzXEkrF_b3o0yHyvXR-133" value="" style="rounded=1;whiteSpace=wrap;html=1;dashed=1;strokeColor=none;sketch=1;curveFitting=1;jiggle=2;" parent="1" vertex="1">
          <mxGeometry x="1050" y="700" width="620" height="210" as="geometry" />
        </mxCell>
        <mxCell id="FxgzXEkrF_b3o0yHyvXR-1" value="" style="rounded=1;whiteSpace=wrap;html=1;dashed=1;strokeColor=none;sketch=1;curveFitting=1;jiggle=2;" parent="1" vertex="1">
          <mxGeometry x="50" y="690" width="420" height="290" as="geometry" />
        </mxCell>
        <mxCell id="FxgzXEkrF_b3o0yHyvXR-2" value="" style="rounded=1;whiteSpace=wrap;html=1;dashed=1;strokeColor=none;sketch=1;curveFitting=1;jiggle=2;shadow=0;" parent="1" vertex="1">
          <mxGeometry x="50" y="370" width="560" height="250" as="geometry" />
        </mxCell>
        <mxCell id="FxgzXEkrF_b3o0yHyvXR-3" value="Sentinela" style="rounded=1;whiteSpace=wrap;html=1;sketch=1;hachureGap=4;jiggle=2;curveFitting=1;fontFamily=Architects Daughter;fontSource=https%3A%2F%2Ffonts.googleapis.com%2Fcss%3Ffamily%3DArchitects%2BDaughter;fillColor=#f5f5f5;fontColor=#333333;strokeColor=#666666;verticalAlign=top;fontStyle=1;fontSize=20;" parent="1" vertex="1">
          <mxGeometry x="180" y="700" width="280" height="270" as="geometry" />
        </mxCell>
        <mxCell id="FxgzXEkrF_b3o0yHyvXR-4" value="Sentinela" style="rounded=1;whiteSpace=wrap;html=1;sketch=1;hachureGap=4;jiggle=2;curveFitting=1;fontFamily=Architects Daughter;fontSource=https%3A%2F%2Ffonts.googleapis.com%2Fcss%3Ffamily%3DArchitects%2BDaughter;fillColor=#f5f5f5;fontColor=#333333;strokeColor=#666666;verticalAlign=top;fontStyle=1;fontSize=20;" parent="1" vertex="1">
          <mxGeometry x="320" y="380" width="160" height="220" as="geometry" />
        </mxCell>
        <mxCell id="FxgzXEkrF_b3o0yHyvXR-5" value="" style="rounded=1;whiteSpace=wrap;html=1;dashed=1;strokeColor=none;sketch=1;curveFitting=1;jiggle=2;fontFamily=Architects Daughter;" parent="1" vertex="1">
          <mxGeometry x="40" y="40" width="720" height="240" as="geometry" />
        </mxCell>
        <mxCell id="FxgzXEkrF_b3o0yHyvXR-6" value="" style="rounded=1;whiteSpace=wrap;html=1;fillColor=#f5f5f5;fontColor=#333333;strokeColor=#666666;dashed=1;sketch=1;curveFitting=1;jiggle=2;fontFamily=Architects Daughter;" parent="1" vertex="1">
          <mxGeometry x="50" y="70" width="160" height="180" as="geometry" />
        </mxCell>
        <mxCell id="FxgzXEkrF_b3o0yHyvXR-7" style="edgeStyle=orthogonalEdgeStyle;rounded=1;orthogonalLoop=1;jettySize=auto;html=1;exitX=1;exitY=0.5;exitDx=0;exitDy=0;entryX=0;entryY=0.75;entryDx=0;entryDy=0;sketch=1;curveFitting=1;jiggle=2;curved=0;strokeWidth=2;fontFamily=Architects Daughter;" parent="1" source="FxgzXEkrF_b3o0yHyvXR-8" target="FxgzXEkrF_b3o0yHyvXR-19" edge="1">
          <mxGeometry relative="1" as="geometry" />
        </mxCell>
        <mxCell id="FxgzXEkrF_b3o0yHyvXR-8" value="Controller" style="rounded=1;whiteSpace=wrap;html=1;fontSize=18;fillColor=#dae8fc;strokeColor=#6c8ebf;sketch=1;curveFitting=1;jiggle=2;fontFamily=Architects Daughter;" parent="1" vertex="1">
          <mxGeometry x="70" y="170" width="120" height="60" as="geometry" />
        </mxCell>
        <mxCell id="FxgzXEkrF_b3o0yHyvXR-9" style="edgeStyle=orthogonalEdgeStyle;rounded=1;orthogonalLoop=1;jettySize=auto;html=1;exitX=1;exitY=0.5;exitDx=0;exitDy=0;entryX=0;entryY=0.25;entryDx=0;entryDy=0;sketch=1;curveFitting=1;jiggle=2;curved=0;strokeWidth=2;fontFamily=Architects Daughter;" parent="1" source="FxgzXEkrF_b3o0yHyvXR-10" target="FxgzXEkrF_b3o0yHyvXR-19" edge="1">
          <mxGeometry relative="1" as="geometry" />
        </mxCell>
        <mxCell id="FxgzXEkrF_b3o0yHyvXR-10" value="HTTP Server&lt;div style=&quot;font-size: 9px;&quot;&gt;&lt;div&gt;Status, m&lt;span style=&quot;background-color: initial;&quot;&gt;etrics and M&lt;/span&gt;&lt;span style=&quot;background-color: initial;&quot;&gt;onitor, Issues and alerts routes&lt;/span&gt;&lt;/div&gt;&lt;/div&gt;" style="rounded=1;whiteSpace=wrap;html=1;fontSize=18;fillColor=#dae8fc;strokeColor=#6c8ebf;sketch=1;curveFitting=1;jiggle=2;fontFamily=Architects Daughter;" parent="1" vertex="1">
          <mxGeometry x="70" y="90" width="120" height="60" as="geometry" />
        </mxCell>
        <mxCell id="FxgzXEkrF_b3o0yHyvXR-11" value="" style="rounded=1;whiteSpace=wrap;html=1;fillColor=#f5f5f5;fontColor=#333333;strokeColor=#666666;dashed=1;sketch=1;curveFitting=1;jiggle=2;fontFamily=Architects Daughter;" parent="1" vertex="1">
          <mxGeometry x="450" y="170" width="300" height="100" as="geometry" />
        </mxCell>
        <mxCell id="FxgzXEkrF_b3o0yHyvXR-12" style="edgeStyle=orthogonalEdgeStyle;rounded=1;orthogonalLoop=1;jettySize=auto;html=1;exitX=0;exitY=0.75;exitDx=0;exitDy=0;entryX=0.75;entryY=1;entryDx=0;entryDy=0;sketch=1;curveFitting=1;jiggle=2;curved=0;strokeWidth=2;fontFamily=Architects Daughter;" parent="1" source="FxgzXEkrF_b3o0yHyvXR-13" target="FxgzXEkrF_b3o0yHyvXR-19" edge="1">
          <mxGeometry relative="1" as="geometry" />
        </mxCell>
        <mxCell id="FxgzXEkrF_b3o0yHyvXR-13" value="Executor" style="rounded=1;whiteSpace=wrap;html=1;fontSize=18;fillColor=#dae8fc;strokeColor=#6c8ebf;sketch=1;curveFitting=1;jiggle=2;fontFamily=Architects Daughter;" parent="1" vertex="1">
          <mxGeometry x="470" y="190" width="120" height="60" as="geometry" />
        </mxCell>
        <mxCell id="FxgzXEkrF_b3o0yHyvXR-14" value="" style="rounded=1;whiteSpace=wrap;html=1;fillColor=#f5f5f5;fontColor=#333333;strokeColor=#666666;dashed=1;sketch=1;curveFitting=1;jiggle=2;fontFamily=Architects Daughter;" parent="1" vertex="1">
          <mxGeometry x="450" y="50" width="300" height="100" as="geometry" />
        </mxCell>
        <mxCell id="FxgzXEkrF_b3o0yHyvXR-15" style="edgeStyle=orthogonalEdgeStyle;rounded=1;orthogonalLoop=1;jettySize=auto;html=1;exitX=0;exitY=0.25;exitDx=0;exitDy=0;entryX=0.75;entryY=0;entryDx=0;entryDy=0;sketch=1;curveFitting=1;jiggle=2;curved=0;strokeWidth=2;fontFamily=Architects Daughter;" parent="1" source="FxgzXEkrF_b3o0yHyvXR-16" target="FxgzXEkrF_b3o0yHyvXR-19" edge="1">
          <mxGeometry relative="1" as="geometry" />
        </mxCell>
        <mxCell id="FxgzXEkrF_b3o0yHyvXR-16" value="Executor" style="rounded=1;whiteSpace=wrap;html=1;fontSize=18;fillColor=#dae8fc;strokeColor=#6c8ebf;sketch=1;curveFitting=1;jiggle=2;fontFamily=Architects Daughter;" parent="1" vertex="1">
          <mxGeometry x="470" y="70" width="120" height="60" as="geometry" />
        </mxCell>
        <mxCell id="FxgzXEkrF_b3o0yHyvXR-17" style="edgeStyle=orthogonalEdgeStyle;rounded=1;orthogonalLoop=1;jettySize=auto;html=1;exitX=1;exitY=0.25;exitDx=0;exitDy=0;sketch=1;curveFitting=1;jiggle=2;curved=0;strokeWidth=2;fontFamily=Architects Daughter;" parent="1" source="FxgzXEkrF_b3o0yHyvXR-19" target="FxgzXEkrF_b3o0yHyvXR-16" edge="1">
          <mxGeometry relative="1" as="geometry" />
        </mxCell>
        <mxCell id="FxgzXEkrF_b3o0yHyvXR-18" style="edgeStyle=orthogonalEdgeStyle;rounded=1;orthogonalLoop=1;jettySize=auto;html=1;exitX=1;exitY=0.75;exitDx=0;exitDy=0;entryX=0;entryY=0.5;entryDx=0;entryDy=0;sketch=1;curveFitting=1;jiggle=2;curved=0;strokeWidth=2;fontFamily=Architects Daughter;" parent="1" source="FxgzXEkrF_b3o0yHyvXR-19" target="FxgzXEkrF_b3o0yHyvXR-13" edge="1">
          <mxGeometry relative="1" as="geometry" />
        </mxCell>
        <mxCell id="FxgzXEkrF_b3o0yHyvXR-19" value="Queue" style="rounded=1;whiteSpace=wrap;html=1;fontSize=18;fillColor=#f8cecc;strokeColor=#b85450;sketch=1;curveFitting=1;jiggle=2;fontFamily=Architects Daughter;" parent="1" vertex="1">
          <mxGeometry x="270" y="130" width="120" height="60" as="geometry" />
        </mxCell>
        <mxCell id="FxgzXEkrF_b3o0yHyvXR-20" value="HTTP Server&lt;div style=&quot;font-size: 9px;&quot;&gt;&lt;div&gt;Status and m&lt;span style=&quot;background-color: initial;&quot;&gt;etrics&lt;/span&gt;&lt;span style=&quot;background-color: initial;&quot;&gt;&amp;nbsp;routes&lt;/span&gt;&lt;/div&gt;&lt;/div&gt;" style="rounded=1;whiteSpace=wrap;html=1;fontSize=18;fillColor=#dae8fc;strokeColor=#6c8ebf;sketch=1;curveFitting=1;jiggle=2;fontFamily=Architects Daughter;" parent="1" vertex="1">
          <mxGeometry x="610" y="70" width="120" height="60" as="geometry" />
        </mxCell>
        <mxCell id="FxgzXEkrF_b3o0yHyvXR-21" value="HTTP Server&lt;div style=&quot;font-size: 9px;&quot;&gt;&lt;div&gt;Status and m&lt;span style=&quot;background-color: initial;&quot;&gt;etrics&lt;/span&gt;&lt;span style=&quot;background-color: initial;&quot;&gt;&amp;nbsp;routes&lt;/span&gt;&lt;/div&gt;&lt;/div&gt;" style="rounded=1;whiteSpace=wrap;html=1;fontSize=18;fillColor=#dae8fc;strokeColor=#6c8ebf;sketch=1;curveFitting=1;jiggle=2;fontFamily=Architects Daughter;" parent="1" vertex="1">
          <mxGeometry x="610" y="190" width="120" height="60" as="geometry" />
        </mxCell>
        <mxCell id="FxgzXEkrF_b3o0yHyvXR-22" style="edgeStyle=orthogonalEdgeStyle;rounded=1;sketch=1;hachureGap=4;jiggle=2;curveFitting=1;orthogonalLoop=1;jettySize=auto;html=1;entryX=0;entryY=0.5;entryDx=0;entryDy=0;fontFamily=Architects Daughter;fontSource=https%3A%2F%2Ffonts.googleapis.com%2Fcss%3Ffamily%3DArchitects%2BDaughter;curved=0;strokeWidth=2;" parent="1" source="FxgzXEkrF_b3o0yHyvXR-23" target="FxgzXEkrF_b3o0yHyvXR-25" edge="1">
          <mxGeometry relative="1" as="geometry" />
        </mxCell>
        <mxCell id="FxgzXEkrF_b3o0yHyvXR-23" value="&lt;div style=&quot;font-size: 15px;&quot;&gt;&lt;span style=&quot;background-color: initial; font-size: 15px;&quot;&gt;&lt;br style=&quot;font-size: 15px;&quot;&gt;&lt;/span&gt;&lt;/div&gt;&lt;div style=&quot;font-size: 15px;&quot;&gt;&lt;span style=&quot;background-color: initial; font-size: 15px;&quot;&gt;Monitor&lt;/span&gt;&lt;/div&gt;&lt;div style=&quot;font-size: 15px;&quot;&gt;Code&lt;/div&gt;" style="shape=note;whiteSpace=wrap;html=1;backgroundOutline=1;darkOpacity=0.05;sketch=1;hachureGap=4;jiggle=2;curveFitting=1;fontFamily=Architects Daughter;fontSource=https%3A%2F%2Ffonts.googleapis.com%2Fcss%3Ffamily%3DArchitects%2BDaughter;fontSize=15;fillColor=#ffe6cc;strokeColor=#d79b00;" parent="1" vertex="1">
          <mxGeometry x="60" y="500" width="80" height="100" as="geometry" />
        </mxCell>
        <mxCell id="FxgzXEkrF_b3o0yHyvXR-24" style="edgeStyle=orthogonalEdgeStyle;rounded=1;sketch=1;hachureGap=4;jiggle=2;curveFitting=1;orthogonalLoop=1;jettySize=auto;html=1;exitX=1;exitY=0.5;exitDx=0;exitDy=0;entryX=0;entryY=0.5;entryDx=0;entryDy=0;fontFamily=Architects Daughter;fontSource=https%3A%2F%2Ffonts.googleapis.com%2Fcss%3Ffamily%3DArchitects%2BDaughter;curved=0;strokeWidth=2;" parent="1" source="FxgzXEkrF_b3o0yHyvXR-25" target="FxgzXEkrF_b3o0yHyvXR-30" edge="1">
          <mxGeometry relative="1" as="geometry" />
        </mxCell>
        <mxCell id="FxgzXEkrF_b3o0yHyvXR-25" value="&lt;div style=&quot;font-size: 18px;&quot;&gt;Monitor&lt;/div&gt;Register&lt;div style=&quot;font-size: 18px;&quot;&gt;Tool&lt;/div&gt;" style="rounded=1;whiteSpace=wrap;html=1;sketch=1;hachureGap=4;jiggle=2;curveFitting=1;fontFamily=Architects Daughter;fontSource=https%3A%2F%2Ffonts.googleapis.com%2Fcss%3Ffamily%3DArchitects%2BDaughter;fontSize=18;fillColor=#dae8fc;strokeColor=#6c8ebf;" parent="1" vertex="1">
          <mxGeometry x="180" y="500" width="120" height="100" as="geometry" />
        </mxCell>
        <mxCell id="FxgzXEkrF_b3o0yHyvXR-26" style="edgeStyle=orthogonalEdgeStyle;rounded=1;sketch=1;hachureGap=4;jiggle=2;curveFitting=1;orthogonalLoop=1;jettySize=auto;html=1;exitX=0.75;exitY=1;exitDx=0;exitDy=0;entryX=0.75;entryY=0;entryDx=0;entryDy=0;fontFamily=Architects Daughter;fontSource=https%3A%2F%2Ffonts.googleapis.com%2Fcss%3Ffamily%3DArchitects%2BDaughter;curved=0;strokeWidth=2;" parent="1" source="FxgzXEkrF_b3o0yHyvXR-27" target="FxgzXEkrF_b3o0yHyvXR-30" edge="1">
          <mxGeometry relative="1" as="geometry" />
        </mxCell>
        <mxCell id="FxgzXEkrF_b3o0yHyvXR-27" value="&lt;div style=&quot;font-size: 18px;&quot;&gt;Monitor&lt;/div&gt;&lt;div style=&quot;font-size: 18px;&quot;&gt;Checker&lt;/div&gt;" style="rounded=1;whiteSpace=wrap;html=1;sketch=1;hachureGap=4;jiggle=2;curveFitting=1;fontFamily=Architects Daughter;fontSource=https%3A%2F%2Ffonts.googleapis.com%2Fcss%3Ffamily%3DArchitects%2BDaughter;fontSize=18;fillColor=#d5e8d4;strokeColor=#82b366;" parent="1" vertex="1">
          <mxGeometry x="340" y="420" width="120" height="60" as="geometry" />
        </mxCell>
        <mxCell id="FxgzXEkrF_b3o0yHyvXR-28" style="edgeStyle=orthogonalEdgeStyle;rounded=1;sketch=1;hachureGap=4;jiggle=2;curveFitting=1;orthogonalLoop=1;jettySize=auto;html=1;exitX=1;exitY=0.5;exitDx=0;exitDy=0;fontFamily=Architects Daughter;fontSource=https%3A%2F%2Ffonts.googleapis.com%2Fcss%3Ffamily%3DArchitects%2BDaughter;curved=0;strokeWidth=2;" parent="1" source="FxgzXEkrF_b3o0yHyvXR-30" target="FxgzXEkrF_b3o0yHyvXR-31" edge="1">
          <mxGeometry relative="1" as="geometry" />
        </mxCell>
        <mxCell id="FxgzXEkrF_b3o0yHyvXR-29" style="edgeStyle=orthogonalEdgeStyle;rounded=1;sketch=1;hachureGap=4;jiggle=2;curveFitting=1;orthogonalLoop=1;jettySize=auto;html=1;exitX=0.25;exitY=0;exitDx=0;exitDy=0;entryX=0.25;entryY=1;entryDx=0;entryDy=0;fontFamily=Architects Daughter;fontSource=https%3A%2F%2Ffonts.googleapis.com%2Fcss%3Ffamily%3DArchitects%2BDaughter;curved=0;strokeWidth=2;" parent="1" source="FxgzXEkrF_b3o0yHyvXR-30" target="FxgzXEkrF_b3o0yHyvXR-27" edge="1">
          <mxGeometry relative="1" as="geometry" />
        </mxCell>
        <mxCell id="FxgzXEkrF_b3o0yHyvXR-30" value="&lt;div style=&quot;font-size: 18px;&quot;&gt;&lt;span style=&quot;background-color: initial;&quot;&gt;API&lt;/span&gt;&lt;/div&gt;&lt;div style=&quot;&quot;&gt;&lt;font style=&quot;font-size: 12px;&quot;&gt;/monitor/register&lt;/font&gt;&lt;/div&gt;" style="rounded=1;whiteSpace=wrap;html=1;sketch=1;hachureGap=4;jiggle=2;curveFitting=1;fontFamily=Architects Daughter;fontSource=https%3A%2F%2Ffonts.googleapis.com%2Fcss%3Ffamily%3DArchitects%2BDaughter;fontSize=18;fillColor=#d5e8d4;strokeColor=#82b366;" parent="1" vertex="1">
          <mxGeometry x="340" y="520" width="120" height="60" as="geometry" />
        </mxCell>
        <mxCell id="FxgzXEkrF_b3o0yHyvXR-31" value="Sentinela&lt;div style=&quot;font-size: 18px;&quot;&gt;Database&lt;/div&gt;" style="shape=cylinder3;whiteSpace=wrap;html=1;boundedLbl=1;backgroundOutline=1;size=15;sketch=1;hachureGap=4;jiggle=2;curveFitting=1;fontFamily=Architects Daughter;fontSource=https%3A%2F%2Ffonts.googleapis.com%2Fcss%3Ffamily%3DArchitects%2BDaughter;fontSize=18;fillColor=#f8cecc;strokeColor=#b85450;" parent="1" vertex="1">
          <mxGeometry x="500" y="490" width="100" height="120" as="geometry" />
        </mxCell>
        <mxCell id="FxgzXEkrF_b3o0yHyvXR-32" style="edgeStyle=orthogonalEdgeStyle;rounded=0;sketch=1;hachureGap=4;jiggle=2;curveFitting=1;orthogonalLoop=1;jettySize=auto;html=1;exitX=0.5;exitY=1;exitDx=0;exitDy=0;entryX=0.5;entryY=0;entryDx=0;entryDy=0;fontFamily=Architects Daughter;fontSource=https%3A%2F%2Ffonts.googleapis.com%2Fcss%3Ffamily%3DArchitects%2BDaughter;strokeWidth=2;" parent="1" source="FxgzXEkrF_b3o0yHyvXR-33" target="FxgzXEkrF_b3o0yHyvXR-34" edge="1">
          <mxGeometry relative="1" as="geometry" />
        </mxCell>
        <mxCell id="FxgzXEkrF_b3o0yHyvXR-33" value="&lt;div style=&quot;font-size: 18px;&quot;&gt;Loader&lt;/div&gt;" style="rounded=1;whiteSpace=wrap;html=1;sketch=1;hachureGap=4;jiggle=2;curveFitting=1;fontFamily=Architects Daughter;fontSource=https%3A%2F%2Ffonts.googleapis.com%2Fcss%3Ffamily%3DArchitects%2BDaughter;fontSize=18;fillColor=#d5e8d4;strokeColor=#82b366;" parent="1" vertex="1">
          <mxGeometry x="200" y="740" width="120" height="60" as="geometry" />
        </mxCell>
        <mxCell id="FxgzXEkrF_b3o0yHyvXR-34" value="&lt;div style=&quot;font-size: 18px;&quot;&gt;Registry&lt;/div&gt;" style="rounded=1;whiteSpace=wrap;html=1;sketch=1;hachureGap=4;jiggle=2;curveFitting=1;fontFamily=Architects Daughter;fontSource=https%3A%2F%2Ffonts.googleapis.com%2Fcss%3Ffamily%3DArchitects%2BDaughter;fontSize=18;fillColor=#d5e8d4;strokeColor=#82b366;" parent="1" vertex="1">
          <mxGeometry x="200" y="845" width="120" height="100" as="geometry" />
        </mxCell>
        <mxCell id="FxgzXEkrF_b3o0yHyvXR-35" style="edgeStyle=orthogonalEdgeStyle;rounded=1;sketch=1;hachureGap=4;jiggle=2;curveFitting=1;orthogonalLoop=1;jettySize=auto;html=1;exitX=0;exitY=0.5;exitDx=0;exitDy=0;entryX=1;entryY=0.25;entryDx=0;entryDy=0;fontFamily=Architects Daughter;fontSource=https%3A%2F%2Ffonts.googleapis.com%2Fcss%3Ffamily%3DArchitects%2BDaughter;curved=0;strokeWidth=2;" parent="1" source="FxgzXEkrF_b3o0yHyvXR-36" target="FxgzXEkrF_b3o0yHyvXR-34" edge="1">
          <mxGeometry relative="1" as="geometry" />
        </mxCell>
        <mxCell id="FxgzXEkrF_b3o0yHyvXR-36" value="Monitors" style="rounded=1;whiteSpace=wrap;html=1;sketch=1;hachureGap=4;jiggle=2;curveFitting=1;fontFamily=Architects Daughter;fontSource=https%3A%2F%2Ffonts.googleapis.com%2Fcss%3Ffamily%3DArchitects%2BDaughter;fontSize=15;fillColor=#e1d5e7;strokeColor=#9673a6;" parent="1" vertex="1">
          <mxGeometry x="360" y="840" width="80" height="30" as="geometry" />
        </mxCell>
        <mxCell id="FxgzXEkrF_b3o0yHyvXR-37" style="edgeStyle=orthogonalEdgeStyle;rounded=1;sketch=1;hachureGap=4;jiggle=2;curveFitting=1;orthogonalLoop=1;jettySize=auto;html=1;exitX=0;exitY=0.5;exitDx=0;exitDy=0;entryX=1;entryY=0.5;entryDx=0;entryDy=0;fontFamily=Architects Daughter;fontSource=https%3A%2F%2Ffonts.googleapis.com%2Fcss%3Ffamily%3DArchitects%2BDaughter;curved=0;strokeWidth=2;" parent="1" source="FxgzXEkrF_b3o0yHyvXR-38" target="FxgzXEkrF_b3o0yHyvXR-34" edge="1">
          <mxGeometry relative="1" as="geometry" />
        </mxCell>
        <mxCell id="FxgzXEkrF_b3o0yHyvXR-38" value="Issues" style="rounded=1;whiteSpace=wrap;html=1;sketch=1;hachureGap=4;jiggle=2;curveFitting=1;fontFamily=Architects Daughter;fontSource=https%3A%2F%2Ffonts.googleapis.com%2Fcss%3Ffamily%3DArchitects%2BDaughter;fontSize=15;fillColor=#e1d5e7;strokeColor=#9673a6;" parent="1" vertex="1">
          <mxGeometry x="360" y="880" width="80" height="30" as="geometry" />
        </mxCell>
        <mxCell id="FxgzXEkrF_b3o0yHyvXR-39" style="edgeStyle=orthogonalEdgeStyle;rounded=1;sketch=1;hachureGap=4;jiggle=2;curveFitting=1;orthogonalLoop=1;jettySize=auto;html=1;exitX=0;exitY=0.5;exitDx=0;exitDy=0;entryX=1;entryY=0.75;entryDx=0;entryDy=0;fontFamily=Architects Daughter;fontSource=https%3A%2F%2Ffonts.googleapis.com%2Fcss%3Ffamily%3DArchitects%2BDaughter;curved=0;strokeWidth=2;" parent="1" source="FxgzXEkrF_b3o0yHyvXR-40" target="FxgzXEkrF_b3o0yHyvXR-34" edge="1">
          <mxGeometry relative="1" as="geometry" />
        </mxCell>
        <mxCell id="FxgzXEkrF_b3o0yHyvXR-40" value="Alerts" style="rounded=1;whiteSpace=wrap;html=1;sketch=1;hachureGap=4;jiggle=2;curveFitting=1;fontFamily=Architects Daughter;fontSource=https%3A%2F%2Ffonts.googleapis.com%2Fcss%3Ffamily%3DArchitects%2BDaughter;fontSize=15;fillColor=#e1d5e7;strokeColor=#9673a6;" parent="1" vertex="1">
          <mxGeometry x="360" y="920" width="80" height="30" as="geometry" />
        </mxCell>
        <mxCell id="FxgzXEkrF_b3o0yHyvXR-41" style="edgeStyle=orthogonalEdgeStyle;rounded=1;sketch=1;hachureGap=4;jiggle=2;curveFitting=1;orthogonalLoop=1;jettySize=auto;html=1;exitX=1;exitY=0.5;exitDx=0;exitDy=0;exitPerimeter=0;fontFamily=Architects Daughter;fontSource=https%3A%2F%2Ffonts.googleapis.com%2Fcss%3Ffamily%3DArchitects%2BDaughter;strokeWidth=2;curved=0;" parent="1" source="FxgzXEkrF_b3o0yHyvXR-42" target="FxgzXEkrF_b3o0yHyvXR-33" edge="1">
          <mxGeometry relative="1" as="geometry" />
        </mxCell>
        <mxCell id="FxgzXEkrF_b3o0yHyvXR-42" value="Sentinela&lt;div style=&quot;font-size: 18px;&quot;&gt;Database&lt;/div&gt;" style="shape=cylinder3;whiteSpace=wrap;html=1;boundedLbl=1;backgroundOutline=1;size=15;sketch=1;hachureGap=4;jiggle=2;curveFitting=1;fontFamily=Architects Daughter;fontSource=https%3A%2F%2Ffonts.googleapis.com%2Fcss%3Ffamily%3DArchitects%2BDaughter;fontSize=18;fillColor=#f8cecc;strokeColor=#b85450;" parent="1" vertex="1">
          <mxGeometry x="60" y="710" width="100" height="120" as="geometry" />
        </mxCell>
        <mxCell id="FxgzXEkrF_b3o0yHyvXR-43" value="" style="rounded=1;whiteSpace=wrap;html=1;dashed=1;strokeColor=none;sketch=1;curveFitting=1;jiggle=2;fontFamily=Architects Daughter;" parent="1" vertex="1">
          <mxGeometry x="810" y="40" width="710" height="200" as="geometry" />
        </mxCell>
        <mxCell id="FxgzXEkrF_b3o0yHyvXR-44" value="&lt;div&gt;&lt;br&gt;&lt;/div&gt;" style="rounded=1;whiteSpace=wrap;html=1;fillColor=#f5f5f5;fontColor=#333333;strokeColor=#666666;dashed=1;sketch=1;curveFitting=1;jiggle=2;fontSize=15;fontFamily=Architects Daughter;" parent="1" vertex="1">
          <mxGeometry x="820" y="50" width="690" height="180" as="geometry" />
        </mxCell>
        <mxCell id="FxgzXEkrF_b3o0yHyvXR-45" value="Controller" style="text;html=1;align=left;verticalAlign=middle;whiteSpace=wrap;rounded=0;fontFamily=Architects Daughter;fontSize=18;fontStyle=1;sketch=1;curveFitting=1;jiggle=2;" parent="1" vertex="1">
          <mxGeometry x="840" y="60" width="100" height="30" as="geometry" />
        </mxCell>
        <mxCell id="FxgzXEkrF_b3o0yHyvXR-46" style="edgeStyle=orthogonalEdgeStyle;rounded=0;sketch=1;hachureGap=4;jiggle=2;curveFitting=1;orthogonalLoop=1;jettySize=auto;html=1;exitX=1;exitY=0.5;exitDx=0;exitDy=0;entryX=0;entryY=0.5;entryDx=0;entryDy=0;fontFamily=Architects Daughter;fontSource=https%3A%2F%2Ffonts.googleapis.com%2Fcss%3Ffamily%3DArchitects%2BDaughter;" parent="1" source="FxgzXEkrF_b3o0yHyvXR-47" edge="1">
          <mxGeometry relative="1" as="geometry">
            <mxPoint x="1000" y="130" as="targetPoint" />
          </mxGeometry>
        </mxCell>
        <mxCell id="FxgzXEkrF_b3o0yHyvXR-47" value="Wait for monitors to be ready" style="rounded=1;whiteSpace=wrap;html=1;fontSize=12;fillColor=#dae8fc;strokeColor=#6c8ebf;sketch=1;curveFitting=1;jiggle=2;fontFamily=Architects Daughter;" parent="1" vertex="1">
          <mxGeometry x="840" y="100" width="120" height="60" as="geometry" />
        </mxCell>
        <mxCell id="FxgzXEkrF_b3o0yHyvXR-50" style="edgeStyle=orthogonalEdgeStyle;rounded=0;sketch=1;hachureGap=4;jiggle=2;curveFitting=1;orthogonalLoop=1;jettySize=auto;html=1;exitX=1;exitY=0.5;exitDx=0;exitDy=0;entryX=0;entryY=0.5;entryDx=0;entryDy=0;fontFamily=Architects Daughter;fontSource=https%3A%2F%2Ffonts.googleapis.com%2Fcss%3Ffamily%3DArchitects%2BDaughter;" parent="1" source="FxgzXEkrF_b3o0yHyvXR-51" target="FxgzXEkrF_b3o0yHyvXR-55" edge="1">
          <mxGeometry relative="1" as="geometry" />
        </mxCell>
        <mxCell id="FxgzXEkrF_b3o0yHyvXR-51" value="Process enabled monitors" style="rounded=1;whiteSpace=wrap;html=1;fontSize=12;fillColor=#dae8fc;strokeColor=#6c8ebf;sketch=1;curveFitting=1;jiggle=2;fontFamily=Architects Daughter;verticalAlign=top;" parent="1" vertex="1">
          <mxGeometry x="1160" y="70" width="170" height="120" as="geometry" />
        </mxCell>
        <mxCell id="FxgzXEkrF_b3o0yHyvXR-52" value="&lt;div style=&quot;font-size: 12px;&quot;&gt;Check triggers&lt;/div&gt;" style="rounded=1;whiteSpace=wrap;html=1;sketch=1;hachureGap=4;jiggle=2;curveFitting=1;fontFamily=Architects Daughter;fontSource=https%3A%2F%2Ffonts.googleapis.com%2Fcss%3Ffamily%3DArchitects%2BDaughter;fontSize=12;fillColor=#d5e8d4;strokeColor=#82b366;" parent="1" vertex="1">
          <mxGeometry x="1190" y="100" width="110" height="30" as="geometry" />
        </mxCell>
        <mxCell id="FxgzXEkrF_b3o0yHyvXR-53" value="&lt;div style=&quot;font-size: 12px;&quot;&gt;Queue tasks&lt;/div&gt;" style="rounded=1;whiteSpace=wrap;html=1;sketch=1;hachureGap=4;jiggle=2;curveFitting=1;fontFamily=Architects Daughter;fontSource=https%3A%2F%2Ffonts.googleapis.com%2Fcss%3Ffamily%3DArchitects%2BDaughter;fontSize=12;fillColor=#d5e8d4;strokeColor=#82b366;" parent="1" vertex="1">
          <mxGeometry x="1190" y="140" width="110" height="30" as="geometry" />
        </mxCell>
        <mxCell id="FxgzXEkrF_b3o0yHyvXR-54" style="edgeStyle=orthogonalEdgeStyle;rounded=0;sketch=1;hachureGap=4;jiggle=2;curveFitting=1;orthogonalLoop=1;jettySize=auto;html=1;exitX=0.5;exitY=1;exitDx=0;exitDy=0;entryX=0.5;entryY=1;entryDx=0;entryDy=0;fontFamily=Architects Daughter;fontSource=https%3A%2F%2Ffonts.googleapis.com%2Fcss%3Ffamily%3DArchitects%2BDaughter;" parent="1" source="FxgzXEkrF_b3o0yHyvXR-55" target="FxgzXEkrF_b3o0yHyvXR-47" edge="1">
          <mxGeometry relative="1" as="geometry">
            <Array as="points">
              <mxPoint x="1430" y="210" />
              <mxPoint x="900" y="210" />
            </Array>
          </mxGeometry>
        </mxCell>
        <mxCell id="FxgzXEkrF_b3o0yHyvXR-55" value="Sleep until next&lt;div&gt;loop&lt;/div&gt;" style="rounded=1;whiteSpace=wrap;html=1;fontSize=12;fillColor=#dae8fc;strokeColor=#6c8ebf;sketch=1;curveFitting=1;jiggle=2;fontFamily=Architects Daughter;" parent="1" vertex="1">
          <mxGeometry x="1370" y="100" width="120" height="60" as="geometry" />
        </mxCell>
        <mxCell id="FxgzXEkrF_b3o0yHyvXR-56" style="edgeStyle=orthogonalEdgeStyle;rounded=0;sketch=1;hachureGap=4;jiggle=2;curveFitting=1;orthogonalLoop=1;jettySize=auto;html=1;exitX=1;exitY=0.5;exitDx=0;exitDy=0;entryX=0;entryY=0.5;entryDx=0;entryDy=0;fontFamily=Architects Daughter;fontSource=https%3A%2F%2Ffonts.googleapis.com%2Fcss%3Ffamily%3DArchitects%2BDaughter;" parent="1" source="FxgzXEkrF_b3o0yHyvXR-57" target="FxgzXEkrF_b3o0yHyvXR-51" edge="1">
          <mxGeometry relative="1" as="geometry" />
        </mxCell>
        <mxCell id="FxgzXEkrF_b3o0yHyvXR-57" value="Run maintenance procedures" style="rounded=1;whiteSpace=wrap;html=1;fontSize=12;fillColor=#dae8fc;strokeColor=#6c8ebf;sketch=1;curveFitting=1;jiggle=2;fontFamily=Architects Daughter;" parent="1" vertex="1">
          <mxGeometry x="1000" y="100" width="120" height="60" as="geometry" />
        </mxCell>
        <mxCell id="FxgzXEkrF_b3o0yHyvXR-58" value="" style="rounded=1;whiteSpace=wrap;html=1;dashed=1;strokeColor=none;sketch=1;curveFitting=1;jiggle=2;fontFamily=Architects Daughter;" parent="1" vertex="1">
          <mxGeometry x="810" y="270" width="880" height="190" as="geometry" />
        </mxCell>
        <mxCell id="FxgzXEkrF_b3o0yHyvXR-59" value="&lt;div&gt;&lt;br&gt;&lt;/div&gt;" style="rounded=1;whiteSpace=wrap;html=1;fillColor=#f5f5f5;fontColor=#333333;strokeColor=#666666;dashed=1;sketch=1;curveFitting=1;jiggle=2;fontSize=15;fontFamily=Architects Daughter;" parent="1" vertex="1">
          <mxGeometry x="820" y="280" width="320" height="170" as="geometry" />
        </mxCell>
        <mxCell id="FxgzXEkrF_b3o0yHyvXR-60" value="Executor" style="text;html=1;align=left;verticalAlign=middle;whiteSpace=wrap;rounded=0;fontFamily=Architects Daughter;fontSize=18;fontStyle=1;sketch=1;curveFitting=1;jiggle=2;" parent="1" vertex="1">
          <mxGeometry x="840" y="290" width="100" height="30" as="geometry" />
        </mxCell>
        <mxCell id="aIjglVBHqbXAZJF5mKJd-10" style="edgeStyle=orthogonalEdgeStyle;rounded=0;orthogonalLoop=1;jettySize=auto;html=1;exitX=1;exitY=0.5;exitDx=0;exitDy=0;entryX=0;entryY=0.5;entryDx=0;entryDy=0;sketch=1;curveFitting=1;jiggle=2;" edge="1" parent="1" source="FxgzXEkrF_b3o0yHyvXR-61" target="aIjglVBHqbXAZJF5mKJd-9">
          <mxGeometry relative="1" as="geometry" />
        </mxCell>
        <mxCell id="FxgzXEkrF_b3o0yHyvXR-61" value="Wait for a message from the queue" style="rounded=1;whiteSpace=wrap;html=1;fontSize=12;fillColor=#dae8fc;strokeColor=#6c8ebf;sketch=1;curveFitting=1;jiggle=2;fontFamily=Architects Daughter;" parent="1" vertex="1">
          <mxGeometry x="840" y="330" width="120" height="60" as="geometry" />
        </mxCell>
        <mxCell id="FxgzXEkrF_b3o0yHyvXR-62" value="&lt;div&gt;&lt;br&gt;&lt;/div&gt;" style="rounded=1;whiteSpace=wrap;html=1;fillColor=#f8cecc;strokeColor=#b85450;dashed=1;sketch=1;curveFitting=1;jiggle=2;fontSize=15;fontFamily=Architects Daughter;" parent="1" vertex="1">
          <mxGeometry x="1150" y="280" width="530" height="170" as="geometry" />
        </mxCell>
        <mxCell id="FxgzXEkrF_b3o0yHyvXR-63" value="Runner" style="text;html=1;align=left;verticalAlign=middle;whiteSpace=wrap;rounded=0;fontFamily=Architects Daughter;fontSize=18;fontStyle=1;sketch=1;curveFitting=1;jiggle=2;" parent="1" vertex="1">
          <mxGeometry x="1170" y="290" width="160" height="30" as="geometry" />
        </mxCell>
        <mxCell id="FxgzXEkrF_b3o0yHyvXR-66" style="edgeStyle=orthogonalEdgeStyle;rounded=0;sketch=1;hachureGap=4;jiggle=2;curveFitting=1;orthogonalLoop=1;jettySize=auto;html=1;exitX=1;exitY=0.5;exitDx=0;exitDy=0;entryX=0;entryY=0.5;entryDx=0;entryDy=0;fontFamily=Architects Daughter;fontSource=https%3A%2F%2Ffonts.googleapis.com%2Fcss%3Ffamily%3DArchitects%2BDaughter;" parent="1" source="FxgzXEkrF_b3o0yHyvXR-67" target="FxgzXEkrF_b3o0yHyvXR-71" edge="1">
          <mxGeometry relative="1" as="geometry" />
        </mxCell>
        <mxCell id="FxgzXEkrF_b3o0yHyvXR-67" value="Start executing the handler for the message" style="rounded=1;whiteSpace=wrap;html=1;fontSize=12;fillColor=#dae8fc;strokeColor=#6c8ebf;sketch=1;curveFitting=1;jiggle=2;fontFamily=Architects Daughter;" parent="1" vertex="1">
          <mxGeometry x="1170" y="330" width="120" height="60" as="geometry" />
        </mxCell>
        <mxCell id="FxgzXEkrF_b3o0yHyvXR-70" style="edgeStyle=orthogonalEdgeStyle;rounded=0;sketch=1;hachureGap=4;jiggle=2;curveFitting=1;orthogonalLoop=1;jettySize=auto;html=1;exitX=1;exitY=0.5;exitDx=0;exitDy=0;entryX=0;entryY=0.5;entryDx=0;entryDy=0;fontFamily=Architects Daughter;fontSource=https%3A%2F%2Ffonts.googleapis.com%2Fcss%3Ffamily%3DArchitects%2BDaughter;" parent="1" source="FxgzXEkrF_b3o0yHyvXR-71" target="FxgzXEkrF_b3o0yHyvXR-74" edge="1">
          <mxGeometry relative="1" as="geometry" />
        </mxCell>
        <mxCell id="FxgzXEkrF_b3o0yHyvXR-71" value="While handler is executing" style="rounded=1;whiteSpace=wrap;html=1;fontSize=12;fillColor=#dae8fc;strokeColor=#6c8ebf;sketch=1;curveFitting=1;jiggle=2;fontFamily=Architects Daughter;verticalAlign=top;" parent="1" vertex="1">
          <mxGeometry x="1330" y="307.5" width="170" height="105" as="geometry" />
        </mxCell>
        <mxCell id="FxgzXEkrF_b3o0yHyvXR-72" value="&lt;div style=&quot;font-size: 12px;&quot;&gt;Continuously reset message visibility&lt;/div&gt;" style="rounded=1;whiteSpace=wrap;html=1;sketch=1;hachureGap=4;jiggle=2;curveFitting=1;fontFamily=Architects Daughter;fontSource=https%3A%2F%2Ffonts.googleapis.com%2Fcss%3Ffamily%3DArchitects%2BDaughter;fontSize=12;fillColor=#d5e8d4;strokeColor=#82b366;" parent="1" vertex="1">
          <mxGeometry x="1360" y="342.5" width="110" height="50" as="geometry" />
        </mxCell>
        <mxCell id="FxgzXEkrF_b3o0yHyvXR-74" value="Delete message from queue" style="rounded=1;whiteSpace=wrap;html=1;fontSize=12;fillColor=#dae8fc;strokeColor=#6c8ebf;sketch=1;curveFitting=1;jiggle=2;fontFamily=Architects Daughter;" parent="1" vertex="1">
          <mxGeometry x="1540" y="330" width="120" height="60" as="geometry" />
        </mxCell>
        <mxCell id="FxgzXEkrF_b3o0yHyvXR-75" value="" style="rounded=1;whiteSpace=wrap;html=1;dashed=1;strokeColor=none;sketch=1;curveFitting=1;jiggle=2;fontFamily=Architects Daughter;" parent="1" vertex="1">
          <mxGeometry x="820" y="490" width="500" height="180" as="geometry" />
        </mxCell>
        <mxCell id="FxgzXEkrF_b3o0yHyvXR-76" value="&lt;div&gt;&lt;br&gt;&lt;/div&gt;" style="rounded=1;whiteSpace=wrap;html=1;fillColor=#f5f5f5;fontColor=#333333;strokeColor=#666666;dashed=1;sketch=1;curveFitting=1;jiggle=2;fontSize=15;fontFamily=Architects Daughter;" parent="1" vertex="1">
          <mxGeometry x="830" y="500" width="480" height="150" as="geometry" />
        </mxCell>
        <mxCell id="FxgzXEkrF_b3o0yHyvXR-77" value="Monitors Loader" style="text;html=1;align=left;verticalAlign=middle;whiteSpace=wrap;rounded=0;fontFamily=Architects Daughter;fontSize=18;fontStyle=1;sketch=1;curveFitting=1;jiggle=2;" parent="1" vertex="1">
          <mxGeometry x="850" y="510" width="150" height="30" as="geometry" />
        </mxCell>
        <mxCell id="FxgzXEkrF_b3o0yHyvXR-78" style="edgeStyle=orthogonalEdgeStyle;rounded=0;sketch=1;hachureGap=4;jiggle=2;curveFitting=1;orthogonalLoop=1;jettySize=auto;html=1;exitX=1;exitY=0.5;exitDx=0;exitDy=0;entryX=0;entryY=0.5;entryDx=0;entryDy=0;fontFamily=Architects Daughter;fontSource=https%3A%2F%2Ffonts.googleapis.com%2Fcss%3Ffamily%3DArchitects%2BDaughter;" parent="1" source="FxgzXEkrF_b3o0yHyvXR-79" target="FxgzXEkrF_b3o0yHyvXR-81" edge="1">
          <mxGeometry relative="1" as="geometry" />
        </mxCell>
        <mxCell id="FxgzXEkrF_b3o0yHyvXR-79" value="If controller is enabled, register internal and sample monitors" style="rounded=1;whiteSpace=wrap;html=1;fontSize=12;fillColor=#dae8fc;strokeColor=#6c8ebf;sketch=1;curveFitting=1;jiggle=2;fontFamily=Architects Daughter;" parent="1" vertex="1">
          <mxGeometry x="850" y="540" width="120" height="80" as="geometry" />
        </mxCell>
        <mxCell id="FxgzXEkrF_b3o0yHyvXR-80" style="edgeStyle=orthogonalEdgeStyle;rounded=0;sketch=1;hachureGap=4;jiggle=2;curveFitting=1;orthogonalLoop=1;jettySize=auto;html=1;exitX=1;exitY=0.5;exitDx=0;exitDy=0;entryX=0;entryY=0.5;entryDx=0;entryDy=0;fontFamily=Architects Daughter;fontSource=https%3A%2F%2Ffonts.googleapis.com%2Fcss%3Ffamily%3DArchitects%2BDaughter;" parent="1" source="FxgzXEkrF_b3o0yHyvXR-81" target="FxgzXEkrF_b3o0yHyvXR-83" edge="1">
          <mxGeometry relative="1" as="geometry" />
        </mxCell>
        <mxCell id="FxgzXEkrF_b3o0yHyvXR-81" value="Load monitors&lt;div&gt;from database&lt;/div&gt;" style="rounded=1;whiteSpace=wrap;html=1;fontSize=12;fillColor=#dae8fc;strokeColor=#6c8ebf;sketch=1;curveFitting=1;jiggle=2;fontFamily=Architects Daughter;" parent="1" vertex="1">
          <mxGeometry x="1010" y="550" width="120" height="60" as="geometry" />
        </mxCell>
        <mxCell id="FxgzXEkrF_b3o0yHyvXR-82" style="edgeStyle=orthogonalEdgeStyle;rounded=0;sketch=1;hachureGap=4;jiggle=2;curveFitting=1;orthogonalLoop=1;jettySize=auto;html=1;exitX=0.5;exitY=1;exitDx=0;exitDy=0;entryX=0.5;entryY=1;entryDx=0;entryDy=0;fontFamily=Architects Daughter;fontSource=https%3A%2F%2Ffonts.googleapis.com%2Fcss%3Ffamily%3DArchitects%2BDaughter;" parent="1" source="FxgzXEkrF_b3o0yHyvXR-83" target="FxgzXEkrF_b3o0yHyvXR-81" edge="1">
          <mxGeometry relative="1" as="geometry" />
        </mxCell>
        <mxCell id="FxgzXEkrF_b3o0yHyvXR-83" value="Wait for a &quot;monitor pending&quot; request or the next loop" style="rounded=1;whiteSpace=wrap;html=1;fontSize=12;fillColor=#dae8fc;strokeColor=#6c8ebf;sketch=1;curveFitting=1;jiggle=2;fontFamily=Architects Daughter;" parent="1" vertex="1">
          <mxGeometry x="1170" y="550" width="120" height="60" as="geometry" />
        </mxCell>
        <mxCell id="FxgzXEkrF_b3o0yHyvXR-84" value="" style="rounded=1;whiteSpace=wrap;html=1;dashed=1;strokeColor=none;sketch=1;curveFitting=1;jiggle=2;" parent="1" vertex="1">
          <mxGeometry x="710" y="700" width="320" height="280" as="geometry" />
        </mxCell>
        <mxCell id="FxgzXEkrF_b3o0yHyvXR-87" value="Search" style="rounded=1;whiteSpace=wrap;html=1;sketch=1;hachureGap=4;jiggle=2;curveFitting=1;fontFamily=Architects Daughter;fontSource=https%3A%2F%2Ffonts.googleapis.com%2Fcss%3Ffamily%3DArchitects%2BDaughter;fillColor=#f5f5f5;fontColor=#333333;strokeColor=#666666;verticalAlign=top;fontStyle=1;fontSize=20;" parent="1" vertex="1">
          <mxGeometry x="720" y="710" width="160" height="260" as="geometry" />
        </mxCell>
        <mxCell id="FxgzXEkrF_b3o0yHyvXR-95" style="edgeStyle=orthogonalEdgeStyle;rounded=0;orthogonalLoop=1;jettySize=auto;html=1;entryX=0;entryY=0.5;entryDx=0;entryDy=0;sketch=1;curveFitting=1;jiggle=2;curved=1;" parent="1" source="FxgzXEkrF_b3o0yHyvXR-86" target="FxgzXEkrF_b3o0yHyvXR-91" edge="1">
          <mxGeometry relative="1" as="geometry" />
        </mxCell>
        <mxCell id="FxgzXEkrF_b3o0yHyvXR-86" value="{&quot;id&quot;: 12, &quot;&lt;span style=&quot;color: light-dark(rgb(0, 0, 0), rgb(255, 255, 255)); background-color: transparent;&quot;&gt;value&quot;: 10}&lt;/span&gt;" style="rounded=1;whiteSpace=wrap;html=1;fontSize=14;fillColor=#dae8fc;strokeColor=#6c8ebf;sketch=1;curveFitting=1;jiggle=2;fontFamily=Architects Daughter;" parent="1" vertex="1">
          <mxGeometry x="740" y="750" width="120" height="60" as="geometry" />
        </mxCell>
        <mxCell id="FxgzXEkrF_b3o0yHyvXR-96" style="edgeStyle=orthogonalEdgeStyle;rounded=0;orthogonalLoop=1;jettySize=auto;html=1;exitX=1;exitY=0.5;exitDx=0;exitDy=0;entryX=0;entryY=0.5;entryDx=0;entryDy=0;curved=1;sketch=1;curveFitting=1;jiggle=2;" parent="1" source="FxgzXEkrF_b3o0yHyvXR-88" target="FxgzXEkrF_b3o0yHyvXR-92" edge="1">
          <mxGeometry relative="1" as="geometry" />
        </mxCell>
        <mxCell id="FxgzXEkrF_b3o0yHyvXR-88" value="{&quot;id&quot;: 23, &quot;&lt;span style=&quot;color: light-dark(rgb(0, 0, 0), rgb(255, 255, 255)); background-color: transparent;&quot;&gt;value&quot;: 3}&lt;/span&gt;" style="rounded=1;whiteSpace=wrap;html=1;fontSize=14;fillColor=#dae8fc;strokeColor=#6c8ebf;sketch=1;curveFitting=1;jiggle=2;fontFamily=Architects Daughter;" parent="1" vertex="1">
          <mxGeometry x="740" y="820" width="120" height="60" as="geometry" />
        </mxCell>
        <mxCell id="FxgzXEkrF_b3o0yHyvXR-89" value="{&quot;id&quot;: 34, &quot;&lt;span style=&quot;color: light-dark(rgb(0, 0, 0), rgb(255, 255, 255)); background-color: transparent;&quot;&gt;value&quot;: 1}&lt;/span&gt;" style="rounded=1;whiteSpace=wrap;html=1;fontSize=14;fillColor=#dae8fc;strokeColor=#6c8ebf;sketch=1;curveFitting=1;jiggle=2;fontFamily=Architects Daughter;" parent="1" vertex="1">
          <mxGeometry x="740" y="890" width="120" height="60" as="geometry" />
        </mxCell>
        <mxCell id="FxgzXEkrF_b3o0yHyvXR-91" value="&lt;div&gt;&lt;b&gt;Issue 1&lt;/b&gt;&lt;/div&gt;model_id: 12&lt;div&gt;{&quot;id&quot;: 12, &quot;&lt;span style=&quot;background-color: transparent; color: light-dark(rgb(0, 0, 0), rgb(255, 255, 255));&quot;&gt;value&quot;: 10}&lt;/span&gt;&lt;/div&gt;" style="rounded=1;whiteSpace=wrap;html=1;fontSize=14;fillColor=#d5e8d4;strokeColor=#82b366;sketch=1;curveFitting=1;jiggle=2;fontFamily=Architects Daughter;" parent="1" vertex="1">
          <mxGeometry x="900" y="750" width="120" height="60" as="geometry" />
        </mxCell>
        <mxCell id="FxgzXEkrF_b3o0yHyvXR-92" value="&lt;div&gt;&lt;b&gt;Issue 2&lt;/b&gt;&lt;/div&gt;model_id: 23&lt;div&gt;{&quot;id&quot;: 23, &quot;&lt;span style=&quot;background-color: transparent; color: light-dark(rgb(0, 0, 0), rgb(255, 255, 255));&quot;&gt;value&quot;: 3}&lt;/span&gt;&lt;/div&gt;" style="rounded=1;whiteSpace=wrap;html=1;fontSize=14;fillColor=#d5e8d4;strokeColor=#82b366;sketch=1;curveFitting=1;jiggle=2;fontFamily=Architects Daughter;" parent="1" vertex="1">
          <mxGeometry x="900" y="820" width="120" height="60" as="geometry" />
        </mxCell>
        <mxCell id="FxgzXEkrF_b3o0yHyvXR-98" value="It&#39;s already solved" style="text;html=1;align=center;verticalAlign=middle;whiteSpace=wrap;rounded=0;sketch=1;curveFitting=1;jiggle=2;fontFamily=Architects Daughter;rotation=-30;" parent="1" vertex="1">
          <mxGeometry x="889.9999999999999" y="910" width="70" height="30" as="geometry" />
        </mxCell>
        <mxCell id="FxgzXEkrF_b3o0yHyvXR-104" value="" style="curved=1;endArrow=classic;html=1;rounded=0;exitX=1;exitY=0.25;exitDx=0;exitDy=0;entryX=0.25;entryY=0;entryDx=0;entryDy=0;sketch=1;curveFitting=1;jiggle=2;" parent="1" source="FxgzXEkrF_b3o0yHyvXR-89" target="FxgzXEkrF_b3o0yHyvXR-98" edge="1">
          <mxGeometry width="50" height="50" relative="1" as="geometry">
            <mxPoint x="925" y="945" as="sourcePoint" />
            <mxPoint x="975" y="895" as="targetPoint" />
            <Array as="points">
              <mxPoint x="870" y="900" />
            </Array>
          </mxGeometry>
        </mxCell>
        <mxCell id="FxgzXEkrF_b3o0yHyvXR-105" value="Update" style="rounded=1;whiteSpace=wrap;html=1;sketch=1;hachureGap=4;jiggle=2;curveFitting=1;fontFamily=Architects Daughter;fontSource=https%3A%2F%2Ffonts.googleapis.com%2Fcss%3Ffamily%3DArchitects%2BDaughter;fillColor=#f5f5f5;fontColor=#333333;strokeColor=#666666;verticalAlign=top;fontStyle=1;fontSize=20;" parent="1" vertex="1">
          <mxGeometry x="1200" y="710" width="320" height="190" as="geometry" />
        </mxCell>
        <mxCell id="FxgzXEkrF_b3o0yHyvXR-113" style="edgeStyle=orthogonalEdgeStyle;rounded=0;sketch=1;hachureGap=4;jiggle=2;curveFitting=1;orthogonalLoop=1;jettySize=auto;html=1;exitX=1;exitY=0.5;exitDx=0;exitDy=0;fontFamily=Architects Daughter;fontSource=https%3A%2F%2Ffonts.googleapis.com%2Fcss%3Ffamily%3DArchitects%2BDaughter;" parent="1" source="FxgzXEkrF_b3o0yHyvXR-106" target="FxgzXEkrF_b3o0yHyvXR-111" edge="1">
          <mxGeometry relative="1" as="geometry" />
        </mxCell>
        <mxCell id="FxgzXEkrF_b3o0yHyvXR-106" value="{&quot;id&quot;: 12, &quot;&lt;span style=&quot;color: light-dark(rgb(0, 0, 0), rgb(255, 255, 255)); background-color: transparent;&quot;&gt;value&quot;: 10}&lt;/span&gt;" style="rounded=1;whiteSpace=wrap;html=1;fontSize=14;fillColor=#dae8fc;strokeColor=#6c8ebf;sketch=1;curveFitting=1;jiggle=2;fontFamily=Architects Daughter;" parent="1" vertex="1">
          <mxGeometry x="1220" y="750" width="120" height="60" as="geometry" />
        </mxCell>
        <mxCell id="FxgzXEkrF_b3o0yHyvXR-114" style="edgeStyle=orthogonalEdgeStyle;rounded=0;sketch=1;hachureGap=4;jiggle=2;curveFitting=1;orthogonalLoop=1;jettySize=auto;html=1;exitX=1;exitY=0.5;exitDx=0;exitDy=0;entryX=0;entryY=0.5;entryDx=0;entryDy=0;fontFamily=Architects Daughter;fontSource=https%3A%2F%2Ffonts.googleapis.com%2Fcss%3Ffamily%3DArchitects%2BDaughter;" parent="1" source="FxgzXEkrF_b3o0yHyvXR-107" target="FxgzXEkrF_b3o0yHyvXR-112" edge="1">
          <mxGeometry relative="1" as="geometry" />
        </mxCell>
        <mxCell id="FxgzXEkrF_b3o0yHyvXR-107" value="{&quot;id&quot;: 23, &quot;&lt;span style=&quot;color: light-dark(rgb(0, 0, 0), rgb(255, 255, 255)); background-color: transparent;&quot;&gt;value&quot;: 3}&lt;/span&gt;" style="rounded=1;whiteSpace=wrap;html=1;fontSize=14;fillColor=#dae8fc;strokeColor=#6c8ebf;sketch=1;curveFitting=1;jiggle=2;fontFamily=Architects Daughter;" parent="1" vertex="1">
          <mxGeometry x="1220" y="820" width="120" height="60" as="geometry" />
        </mxCell>
        <mxCell id="FxgzXEkrF_b3o0yHyvXR-117" style="edgeStyle=orthogonalEdgeStyle;rounded=0;sketch=1;hachureGap=4;jiggle=2;curveFitting=1;orthogonalLoop=1;jettySize=auto;html=1;exitX=1;exitY=0.5;exitDx=0;exitDy=0;entryX=0;entryY=0.5;entryDx=0;entryDy=0;fontFamily=Architects Daughter;fontSource=https%3A%2F%2Ffonts.googleapis.com%2Fcss%3Ffamily%3DArchitects%2BDaughter;" parent="1" source="FxgzXEkrF_b3o0yHyvXR-111" target="FxgzXEkrF_b3o0yHyvXR-115" edge="1">
          <mxGeometry relative="1" as="geometry" />
        </mxCell>
        <mxCell id="FxgzXEkrF_b3o0yHyvXR-111" value="{&quot;id&quot;: 12, &quot;&lt;span style=&quot;color: light-dark(rgb(0, 0, 0), rgb(255, 255, 255)); background-color: transparent;&quot;&gt;value&quot;: &lt;span&gt;4&lt;/span&gt;}&lt;/span&gt;" style="rounded=1;whiteSpace=wrap;html=1;fontSize=14;fillColor=#dae8fc;strokeColor=#6c8ebf;sketch=1;curveFitting=1;jiggle=2;fontFamily=Architects Daughter;fontStyle=0" parent="1" vertex="1">
          <mxGeometry x="1380" y="750" width="120" height="60" as="geometry" />
        </mxCell>
        <mxCell id="FxgzXEkrF_b3o0yHyvXR-118" style="edgeStyle=orthogonalEdgeStyle;rounded=0;sketch=1;hachureGap=4;jiggle=2;curveFitting=1;orthogonalLoop=1;jettySize=auto;html=1;exitX=1;exitY=0.5;exitDx=0;exitDy=0;entryX=0;entryY=0.5;entryDx=0;entryDy=0;fontFamily=Architects Daughter;fontSource=https%3A%2F%2Ffonts.googleapis.com%2Fcss%3Ffamily%3DArchitects%2BDaughter;" parent="1" source="FxgzXEkrF_b3o0yHyvXR-112" target="FxgzXEkrF_b3o0yHyvXR-116" edge="1">
          <mxGeometry relative="1" as="geometry" />
        </mxCell>
        <mxCell id="FxgzXEkrF_b3o0yHyvXR-112" value="{&quot;id&quot;: 23, &quot;&lt;span style=&quot;color: light-dark(rgb(0, 0, 0), rgb(255, 255, 255)); background-color: transparent;&quot;&gt;value&quot;: 1}&lt;/span&gt;" style="rounded=1;whiteSpace=wrap;html=1;fontSize=14;fillColor=#dae8fc;strokeColor=#6c8ebf;sketch=1;curveFitting=1;jiggle=2;fontFamily=Architects Daughter;fontStyle=0" parent="1" vertex="1">
          <mxGeometry x="1380" y="820" width="120" height="60" as="geometry" />
        </mxCell>
        <mxCell id="FxgzXEkrF_b3o0yHyvXR-115" value="&lt;div&gt;&lt;b&gt;Issue 1&lt;/b&gt;&lt;/div&gt;model_id: 12&lt;div&gt;{&quot;id&quot;: 12, &quot;&lt;span style=&quot;background-color: transparent; color: light-dark(rgb(0, 0, 0), rgb(255, 255, 255));&quot;&gt;value&quot;: 4}&lt;/span&gt;&lt;/div&gt;" style="rounded=1;whiteSpace=wrap;html=1;fontSize=14;fillColor=#d5e8d4;strokeColor=#82b366;sketch=1;curveFitting=1;jiggle=2;fontFamily=Architects Daughter;" parent="1" vertex="1">
          <mxGeometry x="1540" y="750" width="120" height="60" as="geometry" />
        </mxCell>
        <mxCell id="FxgzXEkrF_b3o0yHyvXR-116" value="&lt;div&gt;&lt;b&gt;Issue 2&lt;/b&gt;&lt;/div&gt;model_id: 23&lt;div&gt;{&quot;id&quot;: 23, &quot;&lt;span style=&quot;background-color: transparent; color: light-dark(rgb(0, 0, 0), rgb(255, 255, 255));&quot;&gt;value&quot;: 1}&lt;/span&gt;&lt;/div&gt;" style="rounded=1;whiteSpace=wrap;html=1;fontSize=14;fillColor=#d5e8d4;strokeColor=#82b366;sketch=1;curveFitting=1;jiggle=2;fontFamily=Architects Daughter;" parent="1" vertex="1">
          <mxGeometry x="1540" y="820" width="120" height="60" as="geometry" />
        </mxCell>
        <mxCell id="FxgzXEkrF_b3o0yHyvXR-131" style="edgeStyle=orthogonalEdgeStyle;rounded=0;sketch=1;hachureGap=4;jiggle=2;curveFitting=1;orthogonalLoop=1;jettySize=auto;html=1;exitX=1;exitY=0.5;exitDx=0;exitDy=0;fontFamily=Architects Daughter;fontSource=https%3A%2F%2Ffonts.googleapis.com%2Fcss%3Ffamily%3DArchitects%2BDaughter;" parent="1" source="FxgzXEkrF_b3o0yHyvXR-123" target="FxgzXEkrF_b3o0yHyvXR-129" edge="1">
          <mxGeometry relative="1" as="geometry" />
        </mxCell>
        <mxCell id="FxgzXEkrF_b3o0yHyvXR-123" value="{&quot;id&quot;: 12, &quot;&lt;span style=&quot;color: light-dark(rgb(0, 0, 0), rgb(255, 255, 255)); background-color: transparent;&quot;&gt;value&quot;: &lt;span&gt;4&lt;/span&gt;}&lt;/span&gt;" style="rounded=1;whiteSpace=wrap;html=1;fontSize=14;fillColor=#dae8fc;strokeColor=#6c8ebf;sketch=1;curveFitting=1;jiggle=2;fontFamily=Architects Daughter;fontStyle=0" parent="1" vertex="1">
          <mxGeometry x="920" y="1050" width="120" height="60" as="geometry" />
        </mxCell>
        <mxCell id="FxgzXEkrF_b3o0yHyvXR-132" style="edgeStyle=orthogonalEdgeStyle;rounded=0;sketch=1;hachureGap=4;jiggle=2;curveFitting=1;orthogonalLoop=1;jettySize=auto;html=1;exitX=1;exitY=0.5;exitDx=0;exitDy=0;entryX=0;entryY=0.5;entryDx=0;entryDy=0;fontFamily=Architects Daughter;fontSource=https%3A%2F%2Ffonts.googleapis.com%2Fcss%3Ffamily%3DArchitects%2BDaughter;" parent="1" source="FxgzXEkrF_b3o0yHyvXR-124" target="FxgzXEkrF_b3o0yHyvXR-130" edge="1">
          <mxGeometry relative="1" as="geometry" />
        </mxCell>
        <mxCell id="FxgzXEkrF_b3o0yHyvXR-124" value="{&quot;id&quot;: 23, &quot;&lt;span style=&quot;color: light-dark(rgb(0, 0, 0), rgb(255, 255, 255)); background-color: transparent;&quot;&gt;value&quot;: &lt;span&gt;1&lt;/span&gt;}&lt;/span&gt;" style="rounded=1;whiteSpace=wrap;html=1;fontSize=14;fillColor=#dae8fc;strokeColor=#6c8ebf;sketch=1;curveFitting=1;jiggle=2;fontFamily=Architects Daughter;fontStyle=0" parent="1" vertex="1">
          <mxGeometry x="920" y="1120" width="120" height="60" as="geometry" />
        </mxCell>
        <mxCell id="FxgzXEkrF_b3o0yHyvXR-145" style="edgeStyle=orthogonalEdgeStyle;rounded=0;sketch=1;hachureGap=4;jiggle=2;curveFitting=1;orthogonalLoop=1;jettySize=auto;html=1;exitX=1;exitY=0.5;exitDx=0;exitDy=0;entryX=0;entryY=0.5;entryDx=0;entryDy=0;fontFamily=Architects Daughter;fontSource=https%3A%2F%2Ffonts.googleapis.com%2Fcss%3Ffamily%3DArchitects%2BDaughter;dashed=1;" parent="1" source="FxgzXEkrF_b3o0yHyvXR-129" target="FxgzXEkrF_b3o0yHyvXR-143" edge="1">
          <mxGeometry relative="1" as="geometry" />
        </mxCell>
        <mxCell id="FxgzXEkrF_b3o0yHyvXR-129" value="False" style="rounded=1;whiteSpace=wrap;html=1;fontSize=14;fillColor=#dae8fc;strokeColor=#6c8ebf;sketch=1;curveFitting=1;jiggle=2;fontFamily=Architects Daughter;fontStyle=0" parent="1" vertex="1">
          <mxGeometry x="1080" y="1050" width="120" height="60" as="geometry" />
        </mxCell>
        <mxCell id="FxgzXEkrF_b3o0yHyvXR-146" style="edgeStyle=orthogonalEdgeStyle;rounded=0;sketch=1;hachureGap=4;jiggle=2;curveFitting=1;orthogonalLoop=1;jettySize=auto;html=1;exitX=1;exitY=0.5;exitDx=0;exitDy=0;entryX=0;entryY=0.5;entryDx=0;entryDy=0;fontFamily=Architects Daughter;fontSource=https%3A%2F%2Ffonts.googleapis.com%2Fcss%3Ffamily%3DArchitects%2BDaughter;dashed=1;" parent="1" source="FxgzXEkrF_b3o0yHyvXR-130" target="FxgzXEkrF_b3o0yHyvXR-144" edge="1">
          <mxGeometry relative="1" as="geometry" />
        </mxCell>
        <mxCell id="FxgzXEkrF_b3o0yHyvXR-130" value="True" style="rounded=1;whiteSpace=wrap;html=1;fontSize=14;fillColor=#dae8fc;strokeColor=#6c8ebf;sketch=1;curveFitting=1;jiggle=2;fontFamily=Architects Daughter;fontStyle=0" parent="1" vertex="1">
          <mxGeometry x="1080" y="1120" width="120" height="60" as="geometry" />
        </mxCell>
        <mxCell id="FxgzXEkrF_b3o0yHyvXR-136" style="edgeStyle=orthogonalEdgeStyle;rounded=0;sketch=1;hachureGap=4;jiggle=2;curveFitting=1;orthogonalLoop=1;jettySize=auto;html=1;exitX=1;exitY=0.5;exitDx=0;exitDy=0;entryX=0;entryY=0.5;entryDx=0;entryDy=0;fontFamily=Architects Daughter;fontSource=https%3A%2F%2Ffonts.googleapis.com%2Fcss%3Ffamily%3DArchitects%2BDaughter;dashed=1;" parent="1" source="FxgzXEkrF_b3o0yHyvXR-134" target="FxgzXEkrF_b3o0yHyvXR-106" edge="1">
          <mxGeometry relative="1" as="geometry" />
        </mxCell>
        <mxCell id="FxgzXEkrF_b3o0yHyvXR-134" value="&lt;div&gt;&lt;b&gt;Issue 1&lt;/b&gt;&lt;/div&gt;model_id: 12&lt;div&gt;{&quot;id&quot;: 12, &quot;&lt;span style=&quot;background-color: transparent; color: light-dark(rgb(0, 0, 0), rgb(255, 255, 255));&quot;&gt;value&quot;: 10}&lt;/span&gt;&lt;/div&gt;" style="rounded=1;whiteSpace=wrap;html=1;fontSize=14;fillColor=#d5e8d4;strokeColor=#82b366;sketch=1;curveFitting=1;jiggle=2;fontFamily=Architects Daughter;" parent="1" vertex="1">
          <mxGeometry x="1060" y="750" width="120" height="60" as="geometry" />
        </mxCell>
        <mxCell id="FxgzXEkrF_b3o0yHyvXR-137" style="edgeStyle=orthogonalEdgeStyle;rounded=0;sketch=1;hachureGap=4;jiggle=2;curveFitting=1;orthogonalLoop=1;jettySize=auto;html=1;exitX=1;exitY=0.5;exitDx=0;exitDy=0;fontFamily=Architects Daughter;fontSource=https%3A%2F%2Ffonts.googleapis.com%2Fcss%3Ffamily%3DArchitects%2BDaughter;dashed=1;" parent="1" source="FxgzXEkrF_b3o0yHyvXR-135" target="FxgzXEkrF_b3o0yHyvXR-107" edge="1">
          <mxGeometry relative="1" as="geometry" />
        </mxCell>
        <mxCell id="FxgzXEkrF_b3o0yHyvXR-135" value="&lt;div&gt;&lt;b&gt;Issue 2&lt;/b&gt;&lt;/div&gt;model_id: 23&lt;div&gt;{&quot;id&quot;: 23, &quot;&lt;span style=&quot;background-color: transparent; color: light-dark(rgb(0, 0, 0), rgb(255, 255, 255));&quot;&gt;value&quot;: 3}&lt;/span&gt;&lt;/div&gt;" style="rounded=1;whiteSpace=wrap;html=1;fontSize=14;fillColor=#d5e8d4;strokeColor=#82b366;sketch=1;curveFitting=1;jiggle=2;fontFamily=Architects Daughter;" parent="1" vertex="1">
          <mxGeometry x="1060" y="820" width="120" height="60" as="geometry" />
        </mxCell>
        <mxCell id="FxgzXEkrF_b3o0yHyvXR-141" style="edgeStyle=orthogonalEdgeStyle;rounded=0;sketch=1;hachureGap=4;jiggle=2;curveFitting=1;orthogonalLoop=1;jettySize=auto;html=1;exitX=1;exitY=0.5;exitDx=0;exitDy=0;entryX=0;entryY=0.5;entryDx=0;entryDy=0;fontFamily=Architects Daughter;fontSource=https%3A%2F%2Ffonts.googleapis.com%2Fcss%3Ffamily%3DArchitects%2BDaughter;dashed=1;" parent="1" source="FxgzXEkrF_b3o0yHyvXR-139" target="FxgzXEkrF_b3o0yHyvXR-123" edge="1">
          <mxGeometry relative="1" as="geometry" />
        </mxCell>
        <mxCell id="FxgzXEkrF_b3o0yHyvXR-139" value="&lt;div&gt;&lt;b&gt;Issue 1&lt;/b&gt;&lt;/div&gt;model_id: 12&lt;div&gt;{&quot;id&quot;: 12, &quot;&lt;span style=&quot;background-color: transparent; color: light-dark(rgb(0, 0, 0), rgb(255, 255, 255));&quot;&gt;value&quot;: 4}&lt;/span&gt;&lt;/div&gt;" style="rounded=1;whiteSpace=wrap;html=1;fontSize=14;fillColor=#d5e8d4;strokeColor=#82b366;sketch=1;curveFitting=1;jiggle=2;fontFamily=Architects Daughter;" parent="1" vertex="1">
          <mxGeometry x="760" y="1050" width="120" height="60" as="geometry" />
        </mxCell>
        <mxCell id="FxgzXEkrF_b3o0yHyvXR-142" style="edgeStyle=orthogonalEdgeStyle;rounded=0;sketch=1;hachureGap=4;jiggle=2;curveFitting=1;orthogonalLoop=1;jettySize=auto;html=1;exitX=1;exitY=0.5;exitDx=0;exitDy=0;entryX=0;entryY=0.5;entryDx=0;entryDy=0;fontFamily=Architects Daughter;fontSource=https%3A%2F%2Ffonts.googleapis.com%2Fcss%3Ffamily%3DArchitects%2BDaughter;dashed=1;" parent="1" source="FxgzXEkrF_b3o0yHyvXR-140" target="FxgzXEkrF_b3o0yHyvXR-124" edge="1">
          <mxGeometry relative="1" as="geometry" />
        </mxCell>
        <mxCell id="FxgzXEkrF_b3o0yHyvXR-140" value="&lt;div&gt;&lt;b&gt;Issue 2&lt;/b&gt;&lt;/div&gt;model_id: 23&lt;div&gt;{&quot;id&quot;: 23, &quot;&lt;span style=&quot;background-color: transparent; color: light-dark(rgb(0, 0, 0), rgb(255, 255, 255));&quot;&gt;value&quot;: 1}&lt;/span&gt;&lt;/div&gt;" style="rounded=1;whiteSpace=wrap;html=1;fontSize=14;fillColor=#d5e8d4;strokeColor=#82b366;sketch=1;curveFitting=1;jiggle=2;fontFamily=Architects Daughter;" parent="1" vertex="1">
          <mxGeometry x="760" y="1120" width="120" height="60" as="geometry" />
        </mxCell>
        <mxCell id="FxgzXEkrF_b3o0yHyvXR-149" style="edgeStyle=orthogonalEdgeStyle;rounded=0;sketch=1;hachureGap=4;jiggle=2;curveFitting=1;orthogonalLoop=1;jettySize=auto;html=1;exitX=1;exitY=0.5;exitDx=0;exitDy=0;entryX=0;entryY=0.5;entryDx=0;entryDy=0;fontFamily=Architects Daughter;fontSource=https%3A%2F%2Ffonts.googleapis.com%2Fcss%3Ffamily%3DArchitects%2BDaughter;" parent="1" source="FxgzXEkrF_b3o0yHyvXR-143" target="FxgzXEkrF_b3o0yHyvXR-147" edge="1">
          <mxGeometry relative="1" as="geometry" />
        </mxCell>
        <mxCell id="FxgzXEkrF_b3o0yHyvXR-143" value="&lt;div&gt;&lt;b&gt;Issue 1&lt;/b&gt;&lt;/div&gt;model_id: 12&lt;div&gt;{&quot;id&quot;: 12, &quot;&lt;span style=&quot;background-color: transparent; color: light-dark(rgb(0, 0, 0), rgb(255, 255, 255));&quot;&gt;value&quot;: 4}&lt;/span&gt;&lt;/div&gt;" style="rounded=1;whiteSpace=wrap;html=1;fontSize=14;fillColor=#d5e8d4;strokeColor=#82b366;sketch=1;curveFitting=1;jiggle=2;fontFamily=Architects Daughter;" parent="1" vertex="1">
          <mxGeometry x="1240" y="1050" width="120" height="60" as="geometry" />
        </mxCell>
        <mxCell id="FxgzXEkrF_b3o0yHyvXR-150" style="edgeStyle=orthogonalEdgeStyle;rounded=0;sketch=1;hachureGap=4;jiggle=2;curveFitting=1;orthogonalLoop=1;jettySize=auto;html=1;exitX=1;exitY=0.5;exitDx=0;exitDy=0;entryX=0;entryY=0.5;entryDx=0;entryDy=0;fontFamily=Architects Daughter;fontSource=https%3A%2F%2Ffonts.googleapis.com%2Fcss%3Ffamily%3DArchitects%2BDaughter;" parent="1" source="FxgzXEkrF_b3o0yHyvXR-144" target="FxgzXEkrF_b3o0yHyvXR-148" edge="1">
          <mxGeometry relative="1" as="geometry" />
        </mxCell>
        <mxCell id="FxgzXEkrF_b3o0yHyvXR-144" value="&lt;div&gt;&lt;b&gt;Issue 2&lt;/b&gt;&lt;/div&gt;model_id: 23&lt;div&gt;{&quot;id&quot;: 23, &quot;&lt;span style=&quot;background-color: transparent; color: light-dark(rgb(0, 0, 0), rgb(255, 255, 255));&quot;&gt;value&quot;: 1}&lt;/span&gt;&lt;/div&gt;" style="rounded=1;whiteSpace=wrap;html=1;fontSize=14;fillColor=#d5e8d4;strokeColor=#82b366;sketch=1;curveFitting=1;jiggle=2;fontFamily=Architects Daughter;" parent="1" vertex="1">
          <mxGeometry x="1240" y="1120" width="120" height="60" as="geometry" />
        </mxCell>
        <mxCell id="FxgzXEkrF_b3o0yHyvXR-147" value="Active" style="text;html=1;align=center;verticalAlign=middle;whiteSpace=wrap;rounded=0;fontFamily=Architects Daughter;fontSource=https%3A%2F%2Ffonts.googleapis.com%2Fcss%3Ffamily%3DArchitects%2BDaughter;fontStyle=1;sketch=1;curveFitting=1;jiggle=2;" parent="1" vertex="1">
          <mxGeometry x="1385" y="1065" width="55" height="30" as="geometry" />
        </mxCell>
        <mxCell id="FxgzXEkrF_b3o0yHyvXR-148" value="Solved" style="text;html=1;align=center;verticalAlign=middle;whiteSpace=wrap;rounded=0;fontFamily=Architects Daughter;fontSource=https%3A%2F%2Ffonts.googleapis.com%2Fcss%3Ffamily%3DArchitects%2BDaughter;fontStyle=1;sketch=1;curveFitting=1;jiggle=2;" parent="1" vertex="1">
          <mxGeometry x="1385" y="1135" width="55" height="30" as="geometry" />
        </mxCell>
        <mxCell id="aIjglVBHqbXAZJF5mKJd-13" style="edgeStyle=orthogonalEdgeStyle;rounded=0;sketch=1;hachureGap=4;jiggle=2;curveFitting=1;orthogonalLoop=1;jettySize=auto;html=1;exitX=0.5;exitY=1;exitDx=0;exitDy=0;entryX=0;entryY=0;entryDx=0;entryDy=0;fontFamily=Architects Daughter;fontSource=https%3A%2F%2Ffonts.googleapis.com%2Fcss%3Ffamily%3DArchitects%2BDaughter;" edge="1" parent="1" source="aIjglVBHqbXAZJF5mKJd-9" target="aIjglVBHqbXAZJF5mKJd-12">
          <mxGeometry relative="1" as="geometry">
            <Array as="points">
              <mxPoint x="1060" y="430" />
              <mxPoint x="900" y="430" />
            </Array>
          </mxGeometry>
        </mxCell>
        <mxCell id="aIjglVBHqbXAZJF5mKJd-9" value="Start Runner" style="rounded=1;whiteSpace=wrap;html=1;fontSize=12;fillColor=#dae8fc;strokeColor=#6c8ebf;sketch=1;curveFitting=1;jiggle=2;fontFamily=Architects Daughter;" vertex="1" parent="1">
          <mxGeometry x="1000" y="330" width="120" height="60" as="geometry" />
        </mxCell>
        <mxCell id="aIjglVBHqbXAZJF5mKJd-11" style="edgeStyle=orthogonalEdgeStyle;rounded=0;orthogonalLoop=1;jettySize=auto;html=1;exitX=1;exitY=0.5;exitDx=0;exitDy=0;entryX=0.5;entryY=1;entryDx=0;entryDy=0;sketch=1;curveFitting=1;jiggle=2;" edge="1" parent="1" source="FxgzXEkrF_b3o0yHyvXR-61" target="FxgzXEkrF_b3o0yHyvXR-61">
          <mxGeometry relative="1" as="geometry">
            <Array as="points">
              <mxPoint x="980" y="360" />
              <mxPoint x="980" y="420" />
              <mxPoint x="900" y="420" />
            </Array>
          </mxGeometry>
        </mxCell>
        <mxCell id="aIjglVBHqbXAZJF5mKJd-12" value="No message" style="text;html=1;align=center;verticalAlign=middle;whiteSpace=wrap;rounded=0;fontFamily=Architects Daughter;fontSource=https%3A%2F%2Ffonts.googleapis.com%2Fcss%3Ffamily%3DArchitects%2BDaughter;" vertex="1" parent="1">
          <mxGeometry x="900" y="392.5" width="80" height="30" as="geometry" />
        </mxCell>
      </root>
    </mxGraphModel>
  </diagram>
</mxfile>
